<?xml version="1.0" encoding="UTF-8" standalone="no"?>
<!-- Created with Inkscape (http://www.inkscape.org/) -->

<svg
   xmlns:dc="http://purl.org/dc/elements/1.1/"
   xmlns:cc="http://creativecommons.org/ns#"
   xmlns:rdf="http://www.w3.org/1999/02/22-rdf-syntax-ns#"
   xmlns:svg="http://www.w3.org/2000/svg"
   xmlns="http://www.w3.org/2000/svg"
   xmlns:xlink="http://www.w3.org/1999/xlink"
   xmlns:sodipodi="http://sodipodi.sourceforge.net/DTD/sodipodi-0.dtd"
   xmlns:inkscape="http://www.inkscape.org/namespaces/inkscape"
   version="1.0"
   width="600.04999"
   height="105"
   id="svg2"
   inkscape:version="0.48.2 r9819"
   sodipodi:docname="logo.svg">
  <sodipodi:namedview
     pagecolor="#ffffff"
     bordercolor="#666666"
     borderopacity="1"
     objecttolerance="10"
     gridtolerance="10"
     guidetolerance="10"
     inkscape:pageopacity="0"
     inkscape:pageshadow="2"
     inkscape:window-width="1280"
     inkscape:window-height="776"
     id="namedview3160"
     showgrid="false"
     inkscape:zoom="0.69327557"
     inkscape:cx="300.02499"
     inkscape:cy="52.5"
     inkscape:window-x="0"
     inkscape:window-y="24"
     inkscape:window-maximized="1"
     inkscape:current-layer="svg2" />
  <metadata
     id="metadata2193">
    <rdf:RDF>
      <cc:Work
         rdf:about="">
        <dc:format>image/svg+xml</dc:format>
        <dc:type
           rdf:resource="http://purl.org/dc/dcmitype/StillImage" />
        <dc:title></dc:title>
      </cc:Work>
    </rdf:RDF>
  </metadata>
  <defs
     id="defs4">
    <color-profile
       xlink:href="/usr/share/color/icc/compatibleWithAdobeRGB1998.icc"
       name="Compatible-with-Adobe-RGB--1998-"
       id="color-profile4000" />
    <linearGradient
       id="linearGradient2795">
      <stop
         id="stop2797"
         style="stop-color:#b8b8b8;stop-opacity:0.49803922"
         offset="0" />
      <stop
         id="stop2799"
         style="stop-color:#7f7f7f;stop-opacity:0"
         offset="1" />
    </linearGradient>
    <linearGradient
       id="linearGradient2787">
      <stop
         id="stop2789"
         style="stop-color:#7f7f7f;stop-opacity:0.5"
         offset="0" />
      <stop
         id="stop2791"
         style="stop-color:#7f7f7f;stop-opacity:0"
         offset="1" />
    </linearGradient>
    <linearGradient
       id="linearGradient3676">
      <stop
         id="stop3678"
         style="stop-color:#b2b2b2;stop-opacity:0.5"
         offset="0" />
      <stop
         id="stop3680"
         style="stop-color:#b3b3b3;stop-opacity:0"
         offset="1" />
    </linearGradient>
    <linearGradient
       id="linearGradient3236">
      <stop
         id="stop3244"
         style="stop-color:#f4f4f4;stop-opacity:1"
         offset="0" />
      <stop
         id="stop3240"
         style="stop-color:#ffffff;stop-opacity:1"
         offset="1" />
    </linearGradient>
    <linearGradient
       id="linearGradient4671">
      <stop
         id="stop4673"
         style="stop-color:#ffd43b;stop-opacity:1"
         offset="0" />
      <stop
         id="stop4675"
         style="stop-color:#ffe873;stop-opacity:1"
         offset="1" />
    </linearGradient>
    <linearGradient
       id="linearGradient4689">
      <stop
         id="stop4691"
         style="stop-color:#5a9fd4;stop-opacity:1"
         offset="0" />
      <stop
         id="stop4693"
         style="stop-color:#306998;stop-opacity:1"
         offset="1" />
    </linearGradient>
    <linearGradient
       x1="224.23996"
       y1="144.75717"
       x2="-65.308502"
       y2="144.75717"
       id="linearGradient2987"
       xlink:href="#linearGradient4671"
       gradientUnits="userSpaceOnUse"
       gradientTransform="translate(100.2702,99.61116)" />
    <linearGradient
       x1="172.94208"
       y1="77.475983"
       x2="26.670298"
       y2="76.313133"
       id="linearGradient2990"
       xlink:href="#linearGradient4689"
       gradientUnits="userSpaceOnUse"
       gradientTransform="translate(100.2702,99.61116)" />
    <linearGradient
       x1="172.94208"
       y1="77.475983"
       x2="26.670298"
       y2="76.313133"
       id="linearGradient2587"
       xlink:href="#linearGradient4689"
       gradientUnits="userSpaceOnUse"
       gradientTransform="translate(100.2702,99.61116)" />
    <linearGradient
       x1="224.23996"
       y1="144.75717"
       x2="-65.308502"
       y2="144.75717"
       id="linearGradient2589"
       xlink:href="#linearGradient4671"
       gradientUnits="userSpaceOnUse"
       gradientTransform="translate(100.2702,99.61116)" />
    <linearGradient
       x1="172.94208"
       y1="77.475983"
       x2="26.670298"
       y2="76.313133"
       id="linearGradient2248"
       xlink:href="#linearGradient4689"
       gradientUnits="userSpaceOnUse"
       gradientTransform="translate(100.2702,99.61116)" />
    <linearGradient
       x1="224.23996"
       y1="144.75717"
       x2="-65.308502"
       y2="144.75717"
       id="linearGradient2250"
       xlink:href="#linearGradient4671"
       gradientUnits="userSpaceOnUse"
       gradientTransform="translate(100.2702,99.61116)" />
    <linearGradient
       x1="224.23996"
       y1="144.75717"
       x2="-65.308502"
       y2="144.75717"
       id="linearGradient2255"
       xlink:href="#linearGradient4671"
       gradientUnits="userSpaceOnUse"
       gradientTransform="matrix(0.562541,0,0,0.567972,-11.5974,-7.60954)" />
    <linearGradient
       x1="172.94208"
       y1="76.176224"
       x2="26.670298"
       y2="76.313133"
       id="linearGradient2258"
       xlink:href="#linearGradient4689"
       gradientUnits="userSpaceOnUse"
       gradientTransform="matrix(0.562541,0,0,0.567972,-11.5974,-7.60954)" />
    <radialGradient
       cx="61.518883"
       cy="132.28575"
       r="29.036913"
       fx="61.518883"
       fy="132.28575"
       id="radialGradient2801"
       xlink:href="#linearGradient2795"
       gradientUnits="userSpaceOnUse"
       gradientTransform="matrix(1,0,0,0.177966,0,108.7434)" />
    <linearGradient
       x1="150.96111"
       y1="192.35176"
       x2="112.03144"
       y2="137.27299"
       id="linearGradient1475"
       xlink:href="#linearGradient4671"
       gradientUnits="userSpaceOnUse"
       gradientTransform="matrix(0.562541,0,0,0.567972,-9.3997487,-5.3053169)" />
    <linearGradient
       x1="26.648937"
       y1="20.603781"
       x2="135.66525"
       y2="114.39767"
       id="linearGradient1478"
       xlink:href="#linearGradient4689"
       gradientUnits="userSpaceOnUse"
       gradientTransform="matrix(0.562541,0,0,0.567972,-9.3997487,-5.3053169)" />
    <radialGradient
       cx="61.518883"
       cy="132.28575"
       r="29.036913"
       fx="61.518883"
       fy="132.28575"
       id="radialGradient1480"
       xlink:href="#linearGradient2795"
       gradientUnits="userSpaceOnUse"
       gradientTransform="matrix(2.382716e-8,-0.296405,1.43676,4.683673e-7,-124.41586,170.0665)" />
    <linearGradient
       x1="26.648937"
       y1="20.603781"
       x2="135.66525"
       y2="114.39767"
       id="linearGradient4183"
       xlink:href="#linearGradient4689"
       gradientUnits="userSpaceOnUse"
       gradientTransform="matrix(0.63138863,0,0,0.63748431,-14.570883,12.971009)" />
    <linearGradient
       x1="150.96111"
       y1="192.35176"
       x2="112.03144"
       y2="137.27299"
       id="linearGradient4185"
       xlink:href="#linearGradient4671"
       gradientUnits="userSpaceOnUse"
       gradientTransform="matrix(0.63138863,0,0,0.63748431,-14.570883,12.971009)" />
    <radialGradient
       cx="61.518883"
       cy="132.28575"
       r="29.036913"
       fx="61.518883"
       fy="132.28575"
       id="radialGradient4288"
       xlink:href="#linearGradient2795"
       gradientUnits="userSpaceOnUse"
       gradientTransform="matrix(1.7490565e-8,-0.23994696,1.054668,3.7915457e-7,-78.109429,182.86408)" />
  </defs>
  <g
     id="g4179"
     transform="matrix(0.8909584,0,0,0.8909584,3.5823011,-16.861955)">
    <path
       inkscape:connector-curvature="0"
       style="fill:url(#linearGradient4183);fill-opacity:1"
       id="path1948"
       d="m 59.981055,19.096386 c -4.583653,0.0213 -8.960939,0.412218 -12.8125,1.09375 -11.346216,2.004504 -13.406249,6.200102 -13.40625,13.9375 l 0,10.21875 26.8125,0 0,3.40625 -26.8125,0 -10.0625,0 c -7.792459,0 -14.6157589,4.683717 -16.7499999,13.59375 -2.46182,10.212966 -2.571015,16.586023 0,27.25 1.905928,7.937852 6.4575429,13.593744 14.2499999,13.593754 l 9.21875,0 0,-12.250004 c 0,-8.849902 7.657144,-16.656248 16.75,-16.65625 l 26.78125,0 c 7.454951,0 13.406253,-6.138164 13.40625,-13.625 l 0,-25.53125 c 0,-7.266339 -6.12998,-12.724777 -13.40625,-13.9375 -4.605987,-0.766725 -9.385097,-1.115048 -13.96875,-1.09375 z m -14.5,8.21875 c 2.769547,0 5.03125,2.298646 5.03125,5.125 -2e-6,2.816336 -2.261703,5.09375 -5.03125,5.09375 -2.779476,-1e-6 -5.03125,-2.277415 -5.03125,-5.09375 -10e-7,-2.826353 2.251774,-5.125 5.03125,-5.125 z" />
    <path
       inkscape:connector-curvature="0"
       style="fill:url(#linearGradient4185);fill-opacity:1"
       id="path1950"
       d="m 90.699805,47.752636 0,11.90625 c 0,9.230755 -7.825895,16.999999 -16.75,17 l -26.78125,0 c -7.335833,0 -13.406249,6.278483 -13.40625,13.625 l 0,25.531244 c 0,7.26634 6.318588,11.54032 13.40625,13.625 8.487331,2.49561 16.626237,2.94663 26.78125,0 6.750155,-1.95439 13.406253,-5.88761 13.40625,-13.625 l 0,-10.21875 -26.78125,0 0,-3.40624 26.78125,0 13.406255,0 c 7.79246,0 10.69625,-5.435412 13.40624,-13.593754 2.79933,-8.398886 2.68022,-16.475776 0,-27.25 -1.92578,-7.757441 -5.60387,-13.59375 -13.40624,-13.59375 l -10.062505,0 z m -15.0625,64.656244 c 2.779478,1e-5 5.03125,2.27742 5.03125,5.09375 -2e-6,2.82635 -2.251775,5.125 -5.03125,5.125 -2.76955,0 -5.03125,-2.29865 -5.03125,-5.125 2e-6,-2.81633 2.261697,-5.09375 5.03125,-5.09375 z" />
  </g>
  <path
     inkscape:connector-curvature="0"
     style="fill:#0c479c"
     id="path3055"
     d="m 579.5918,67.356391 c -0.58493,-0.30994 -1.18089,-0.57389 -1.78052,-0.80841 l 0.42857,-0.0349 c 0,0 -3.81763,-1.69039 -4.15148,-13.960886 -0.33016,-12.272336 3.63922,-14.36555 3.63922,-14.36555 l -0.57021,0.02483 c 2.99911,-1.53864 5.57883,-3.96938 7.28118,-7.177257 4.43566,-8.343422 1.26181,-18.707403 -7.08345,-23.143985 -8.34894,-4.431064 -18.71016,-1.264573 -23.14306,7.087127 -1.82283,3.425843 -2.34061,7.189213 -1.76489,10.744732 l -0.19497,-0.299819 c 0,0 1.00522,4.453137 -9.43418,10.933269 -10.43755,6.483811 -15.14636,3.2557 -15.14636,3.2557 l 0.29982,0.441451 c -0.2989,-0.184857 -0.58493,-0.373393 -0.8967,-0.536179 -8.34894,-4.436582 -18.71292,-1.266412 -23.14767,7.082529 -4.4329,8.348021 -1.26181,18.707408 7.08437,23.145828 6.22262,3.3026 13.5599,2.38199 18.72948,-1.76029 l -0.1122,0.21705 c 0,0 3.80015,-3.12602 14.75181,2.75355 8.64509,4.63891 9.92897,9.18586 10.0936,10.89464 -0.22625,6.33942 3.0782,12.55744 9.05618,15.73313 8.34618,4.437499 18.71016,1.26457 23.14306,-7.08253 4.43659,-8.34618 1.26734,-18.71108 -7.0816,-23.14398 z m -19.29877,2.24956 c -1.38321,0.48927 -5.33512,1.03097 -13.65463,-3.43045 -9.0102,-4.83756 -10.34742,-8.878678 -10.54332,-10.091748 0.12784,-1.471504 0.046,-2.940248 -0.20509,-4.373124 l 0.0552,0.08277 c 0,0 -0.73391,-3.930753 9.57581,-10.332711 9.22724,-5.727826 13.42195,-4.588331 14.20276,-4.289432 0.50215,0.341205 1.0227,0.659418 1.56899,0.95004 1.03833,0.551813 2.10885,0.984067 3.19317,1.304119 1.26917,1.208472 3.60518,4.639834 3.84798,13.661068 0.24831,9.089288 -2.42247,12.594228 -3.87833,13.833968 -1.4991,0.67873 -2.90254,1.58463 -4.16252,2.6855 z" />
  <g
     id="g3057"
     transform="matrix(0.91968947,0,0,0.91968947,501.92402,5.888021)">
    <path
       inkscape:connector-curvature="0"
       style="fill:#ffffff"
       id="path3059"
       d="m 62.239,8.1 c -5.415,5.923 -5.529,14.636 -0.312,19.566 -2.579,-2.483 -2.523,-7.651 0.083,-12.597 0.335,-0.443 1.306,-1.49 2.725,-1.014 0.143,0.049 0.237,0.062 0.292,0.053 0.321,0.069 0.65,0.11 0.99,0.095 2.155,-0.098 3.822,-1.921 3.725,-4.077 C 69.698,9.159 69.297,8.303 68.677,7.646 73.679,4.369 79.419,3.994 81.771,6.142 l 0.09,0.006 C 76.488,1.242 67.705,2.119 62.239,8.1 z" />
  </g>
  <g
     id="g3061"
     transform="matrix(0.91968947,0,0,0.91968947,501.92402,5.888021)">
    <path
       inkscape:connector-curvature="0"
       style="fill:#ffffff"
       id="path3063"
       d="M 7.632,62.845 C 7.586,62.798 7.539,62.743 7.491,62.697 c 0.03,0.031 0.059,0.069 0.095,0.102 l 0.046,0.046 z" />
    <path
       inkscape:connector-curvature="0"
       style="fill:#ffffff"
       id="path3065"
       d="M 7.805,43.13 C 2.389,49.054 2.276,57.765 7.492,62.696 4.914,60.212 4.969,55.044 7.575,50.098 c 0.336,-0.444 1.308,-1.49 2.727,-1.014 0.141,0.049 0.236,0.061 0.292,0.054 0.321,0.069 0.651,0.11 0.99,0.095 2.156,-0.099 3.822,-1.922 3.725,-4.076 -0.045,-0.967 -0.445,-1.824 -1.063,-2.48 4.999,-3.276 10.74,-3.654 13.092,-1.505 l 0.089,0.008 C 22.054,36.271 13.269,37.147 7.805,43.13 z" />
  </g>
  <g
     id="g3067"
     transform="matrix(0.91968947,0,0,0.91968947,501.92402,5.888021)">
    <path
       inkscape:connector-curvature="0"
       style="fill:#ffffff"
       id="path3069"
       d="m 65.256,92.504 c -0.047,-0.048 -0.094,-0.102 -0.141,-0.148 0.029,0.031 0.059,0.069 0.094,0.101 l 0.047,0.047 z" />
    <path
       inkscape:connector-curvature="0"
       style="fill:#ffffff"
       id="path3071"
       d="m 65.428,72.786 c -5.416,5.926 -5.529,14.639 -0.313,19.569 -2.58,-2.483 -2.523,-7.653 0.082,-12.597 0.336,-0.445 1.307,-1.49 2.727,-1.014 0.143,0.047 0.235,0.061 0.292,0.053 0.32,0.069 0.651,0.11 0.99,0.096 2.154,-0.1 3.82,-1.924 3.723,-4.08 -0.044,-0.966 -0.445,-1.822 -1.063,-2.479 5,-3.275 10.739,-3.652 13.093,-1.504 l 0.088,0.007 c -5.37,-4.907 -14.156,-4.03 -19.619,1.949 z" />
  </g>
  <text
     sodipodi:linespacing="100%"
     style="font-size:84.37892913999999678px;font-style:normal;font-variant:normal;font-weight:normal;font-stretch:normal;text-align:start;line-height:100%;letter-spacing:0px;word-spacing:0px;writing-mode:lr-tb;text-anchor:start;fill:#ffffff;fill-opacity:0.68493150000000003;stroke:none;font-family:Verana Sans;-inkscape-font-specification:Verana Sans"
     xml:space="preserve"
     id="text3235-0"
     y="77.651299"
     x="142.00471"><tspan
       style="font-size:84.37892913999999678px;font-style:normal;font-variant:normal;font-weight:normal;font-stretch:normal;text-align:start;line-height:100%;writing-mode:lr-tb;text-anchor:start;fill:#ffffff;fill-opacity:0.68493150000000003;font-family:Verana Sans;-inkscape-font-specification:Verana Sans"
       id="tspan3237-3"
       y="77.651299"
       x="142.00471">R</tspan></text>
  <text
     sodipodi:linespacing="100%"
     style="font-size:84.37892913999999678px;font-style:normal;font-variant:normal;font-weight:normal;font-stretch:normal;text-align:start;line-height:100%;letter-spacing:0px;word-spacing:0px;writing-mode:lr-tb;text-anchor:start;fill:#ffffff;fill-opacity:0.68493150000000003;stroke:none;font-family:Verana Sans;-inkscape-font-specification:Verana Sans"
     xml:space="preserve"
     id="text3235-05"
     y="77.651299"
     x="197.48764"><tspan
       style="font-size:84.37892913999999678px;font-style:normal;font-variant:normal;font-weight:normal;font-stretch:normal;text-align:start;line-height:100%;writing-mode:lr-tb;text-anchor:start;fill:#ffffff;fill-opacity:0.68493150000000003;font-family:Verana Sans;-inkscape-font-specification:Verana Sans"
       id="tspan3237-1"
       y="77.651299"
       x="197.48764">D</tspan></text>
  <text
     sodipodi:linespacing="100%"
     style="font-size:84.37892913999999678px;font-style:normal;font-variant:normal;font-weight:normal;font-stretch:normal;text-align:start;line-height:100%;letter-spacing:0px;word-spacing:0px;writing-mode:lr-tb;text-anchor:start;fill:#ffffff;fill-opacity:0.68493150000000003;stroke:none;font-family:Verana Sans;-inkscape-font-specification:Verana Sans"
     xml:space="preserve"
     id="text3235-1"
     y="77.651299"
     x="254.22394"><tspan
       style="font-size:84.37892913999999678px;font-style:normal;font-variant:normal;font-weight:normal;font-stretch:normal;text-align:start;line-height:100%;writing-mode:lr-tb;text-anchor:start;fill:#ffffff;fill-opacity:0.68493150000000003;font-family:Verana Sans;-inkscape-font-specification:Verana Sans"
       id="tspan3237-0"
       y="77.651299"
       x="254.22394">F</tspan></text>
  <text
     sodipodi:linespacing="100%"
     style="font-size:66.78321837999999389px;font-style:normal;font-variant:normal;font-weight:normal;font-stretch:normal;text-align:start;line-height:100%;letter-spacing:0px;word-spacing:0px;writing-mode:lr-tb;text-anchor:start;fill:#ffffff;stroke:none;font-family:Verana Sans;-inkscape-font-specification:Verana Sans"
     xml:space="preserve"
     id="text3235-4"
     transform="scale(1.0248205,0.97578063)"
     y="80.830879"
     x="338.19601"><tspan
       style="font-size:66.78321837999999389px;font-style:normal;font-variant:normal;font-weight:normal;font-stretch:normal;text-align:start;line-height:100%;writing-mode:lr-tb;text-anchor:start;fill:#ffffff;font-family:Verana Sans;-inkscape-font-specification:Verana Sans"
       id="tspan3237-9"
       y="80.830879"
       x="338.19601">ib</tspan></text>
  <text
     sodipodi:linespacing="100%"
     style="font-size:84.37892913999999678px;font-style:normal;font-variant:normal;font-weight:normal;font-stretch:normal;text-align:start;line-height:100%;letter-spacing:0px;word-spacing:0px;writing-mode:lr-tb;text-anchor:start;fill:#ffffff;fill-opacity:0.97260274999999996;stroke:none;font-family:Verana Sans;-inkscape-font-specification:Verana Sans"
     xml:space="preserve"
     id="text3235-1-4"
     y="78.059006"
     x="298.59976"><tspan
       style="font-size:84.37892913999999678px;font-style:normal;font-variant:normal;font-weight:normal;font-stretch:normal;text-align:start;line-height:100%;writing-mode:lr-tb;text-anchor:start;fill:#ffffff;fill-opacity:0.97260274999999996;font-family:Verana Sans;-inkscape-font-specification:Verana Sans"
       id="tspan3237-0-1"
       y="78.059006"
       x="298.59976">L</tspan></text>
</svg>
