<?xml version="1.0" encoding="utf-8"?>
<!-- Generator: Adobe Illustrator 19.0.0, SVG Export Plug-In . SVG Version: 6.00 Build 0)  -->
<svg version="1.1" id="Layer_1" xmlns="http://www.w3.org/2000/svg" xmlns:xlink="http://www.w3.org/1999/xlink" x="0px" y="0px"
	 viewBox="0 0 500 500" style="enable-background:new 0 0 500 500;" xml:space="preserve">
<style type="text/css">
	.st0{fill:#329545;}
	.st1{fill:#FDD43B;}
	.st2{fill:#144A99;}
	.st3{fill:#FFFFFF;}
</style>
<g id="RDFlib">
	<path id="path1948" class="st0" d="M247.4,33.3c-17.7,0.1-34.5,1.6-49.4,4.2c-43.7,7.7-51.7,23.9-51.7,53.7v39.4h103.4v13.1H146.4
		h-38.8c-30,0-56.4,18.1-64.6,52.4c-9.5,39.4-9.9,63.9,0,105.1c7.3,30.6,24.9,52.4,54.9,52.4h35.5v-47.2c0-34.1,29.5-64.2,64.6-64.2
		h103.3c28.7,0,51.7-23.7,51.7-52.5V91.3c0-28-23.6-49.1-51.7-53.7C283.5,34.6,265.1,33.3,247.4,33.3z M191.5,65
		c10.7,0,19.4,8.9,19.4,19.8c0,10.9-8.7,19.6-19.4,19.6c-10.7,0-19.4-8.8-19.4-19.6C172.1,73.9,180.8,65,191.5,65z"/>
	<path id="path1950" class="st1" d="M365.9,143.8v45.9c0,35.6-30.2,65.5-64.6,65.5H198c-28.3,0-51.7,24.2-51.7,52.5v98.4
		c0,28,24.4,44.5,51.7,52.5c32.7,9.6,64.1,11.4,103.3,0c26-7.5,51.7-22.7,51.7-52.5v-39.4H249.7v-13.1H353h51.7
		c30,0,41.2-21,51.7-52.4c10.8-32.4,10.3-63.5,0-105.1c-7.4-29.9-21.6-52.4-51.7-52.4H365.9z M307.8,393.1
		c10.7,0,19.4,8.8,19.4,19.6c0,10.9-8.7,19.8-19.4,19.8c-10.7,0-19.4-8.9-19.4-19.8C288.4,401.9,297.1,393.1,307.8,393.1z"/>
	<path id="XMLID_41_" class="st2" d="M342.1,345.7c5.2-17,2.3-36.4-11.5-51c-3.9-4.2-8.6-7.7-13.6-10.4c-1.8-1-3.6-1.8-5.5-2.5
		c0,0-10.5-5.3-11.5-43.2c-0.3-12.7-0.5-28.2,5.9-39.7c0.9-1.6,1.9-3.2,3.3-4.4c7.3-6.2,15.4-10.5,20.7-18.8
		c5.4-8.5,8.4-18.4,8.4-28.4c0-43.9-53.7-68.6-87.2-40.3c-5.1,4.3-9.4,9.6-12.5,15.6c-5.6,10.6-7.2,22.2-5.5,33.2
		c0,0,2.5,12.8-29.8,32.9c-28.6,17.8-42.5,13-45.3,11.7c-8.2-5.2-17.8-8.2-28.2-8.2c-44,0-68.6,53.8-40.2,87.3
		c4.3,5.1,9.6,9.3,15.5,12.4c19.2,10.2,41.9,7.4,57.9-5.4c0,0,11.4-9,45.2,9.2c26.7,14.3,30.7,28.4,31.2,33.7
		c1.4,14.3,3.7,26.6,13.8,37.7C280.8,397,330.5,384,342.1,345.7z M215.1,280.6c-27.8-14.9-32-27.4-32.6-31.2
		c0.4-4.5,0.1-9.1-0.6-13.5l0.2,0.3c0,0-2.3-12.1,29.6-31.9c28.5-17.7,41.5-14.2,43.9-13.3c1.6,1.1,3.2,2,4.8,2.9
		c3.2,1.7,6.5,3,9.9,4c3.9,3.7,11.1,14.3,11.9,42.2c0.8,28.1-7.5,38.9-12,42.7c-4.6,2.1-9,4.9-12.9,8.3
		C253,292.7,240.8,294.4,215.1,280.6z"/>
	<g id="XMLID_32_">
		<path id="XMLID_33_" class="st3" d="M253.8,117.4c-15.4,16.8-15.7,41.6-0.9,55.6c-7.3-7.1-7.2-21.7,0.2-35.8
			c1-1.3,3.7-4.2,7.7-2.9c0.4,0.1,0.7,0.2,0.8,0.2c0.9,0.2,1.8,0.3,2.8,0.3c6.1-0.3,10.9-5.5,10.6-11.6c-0.1-2.7-1.3-5.2-3-7
			c14.2-9.3,30.5-10.4,37.2-4.3l0.3,0C294.3,97.9,269.3,100.4,253.8,117.4z"/>
	</g>
	<g id="XMLID_29_">
		<path id="XMLID_31_" class="st3" d="M98.6,272.9c-0.1-0.1-0.3-0.3-0.4-0.4c0.1,0.1,0.2,0.2,0.3,0.3L98.6,272.9z"/>
		<path id="XMLID_30_" class="st3" d="M99.1,216.9c-15.4,16.8-15.7,41.6-0.9,55.6c-7.3-7.1-7.2-21.7,0.2-35.8c1-1.3,3.7-4.2,7.7-2.9
			c0.4,0.1,0.7,0.2,0.8,0.2c0.9,0.2,1.8,0.3,2.8,0.3c6.1-0.3,10.9-5.5,10.6-11.6c-0.1-2.7-1.3-5.2-3-7c14.2-9.3,30.5-10.4,37.2-4.3
			l0.3,0C139.6,197.4,114.7,199.9,99.1,216.9z"/>
	</g>
	<g id="XMLID_26_">
		<path id="XMLID_28_" class="st3" d="M262.4,357.2c-0.1-0.1-0.3-0.3-0.4-0.4c0.1,0.1,0.2,0.2,0.3,0.3L262.4,357.2z"/>
		<path id="XMLID_27_" class="st3" d="M262.9,301.2c-15.4,16.8-15.7,41.6-0.9,55.6c-7.3-7.1-7.2-21.7,0.2-35.8
			c1-1.3,3.7-4.2,7.7-2.9c0.4,0.1,0.7,0.2,0.8,0.2c0.9,0.2,1.8,0.3,2.8,0.3c6.1-0.3,10.9-5.5,10.6-11.6c-0.1-2.7-1.3-5.2-3-7
			c14.2-9.3,30.5-10.4,37.2-4.3l0.3,0C303.4,281.7,278.4,284.2,262.9,301.2z"/>
	</g>
</g>
</svg>
