<?xml version="1.0" encoding="us-ascii" standalone="no"?><svg xmlns="http://www.w3.org/2000/svg" xmlns:xlink="http://www.w3.org/1999/xlink" contentStyleType="text/css" height="798px" preserveAspectRatio="none" style="width:890px;height:798px;background:#FEFEFE;" version="1.1" viewBox="0 0 890 798" width="890px" zoomAndPan="magnify"><defs/><g><rect fill="#FEFEFE" height="798" style="stroke:none;stroke-width:1.0;" width="890" x="0" y="0"/><!--class Node--><g id="elem_Node"><rect codeLine="6" fill="#F1F1F1" height="48" id="Node" rx="2.5" ry="2.5" style="stroke:#181818;stroke-width:0.5;" width="69" x="465.5" y="7"/><ellipse cx="480.5" cy="23" fill="#C2C2C2" rx="11" ry="11" style="stroke:#181818;stroke-width:1.0;"/><path d="M483.4688,28.6406 Q482.8906,28.9375 482.25,29.0781 Q481.6094,29.2344 480.9063,29.2344 Q478.4063,29.2344 477.0781,27.5938 Q475.7656,25.9375 475.7656,22.8125 Q475.7656,19.6875 477.0781,18.0313 Q478.4063,16.375 480.9063,16.375 Q481.6094,16.375 482.25,16.5313 Q482.9063,16.6875 483.4688,16.9844 L483.4688,19.7031 Q482.8438,19.125 482.25,18.8594 Q481.6563,18.5781 481.0313,18.5781 Q479.6875,18.5781 479,19.6563 Q478.3125,20.7188 478.3125,22.8125 Q478.3125,24.9063 479,25.9844 Q479.6875,27.0469 481.0313,27.0469 Q481.6563,27.0469 482.25,26.7813 Q482.8438,26.5 483.4688,25.9219 L483.4688,28.6406 Z " fill="#000000"/><text fill="#000000" font-family="sans-serif" font-size="14" lengthAdjust="spacing" textLength="37" x="494.5" y="27.8467">Node</text><line style="stroke:#181818;stroke-width:0.5;" x1="466.5" x2="533.5" y1="39" y2="39"/><line style="stroke:#181818;stroke-width:0.5;" x1="466.5" x2="533.5" y1="47" y2="47"/></g><!--class Identifier--><g id="elem_Identifier"><rect codeLine="8" fill="#F1F1F1" height="96.8906" id="Identifier" rx="2.5" ry="2.5" style="stroke:#181818;stroke-width:0.5;" width="282" x="359" y="115"/><ellipse cx="466.25" cy="131" fill="#C2C2C2" rx="11" ry="11" style="stroke:#181818;stroke-width:1.0;"/><path d="M469.2188,136.6406 Q468.6406,136.9375 468,137.0781 Q467.3594,137.2344 466.6563,137.2344 Q464.1563,137.2344 462.8281,135.5938 Q461.5156,133.9375 461.5156,130.8125 Q461.5156,127.6875 462.8281,126.0313 Q464.1563,124.375 466.6563,124.375 Q467.3594,124.375 468,124.5313 Q468.6563,124.6875 469.2188,124.9844 L469.2188,127.7031 Q468.5938,127.125 468,126.8594 Q467.4063,126.5781 466.7813,126.5781 Q465.4375,126.5781 464.75,127.6563 Q464.0625,128.7188 464.0625,130.8125 Q464.0625,132.9063 464.75,133.9844 Q465.4375,135.0469 466.7813,135.0469 Q467.4063,135.0469 468,134.7813 Q468.5938,134.5 469.2188,133.9219 L469.2188,136.6406 Z " fill="#000000"/><text fill="#000000" font-family="sans-serif" font-size="14" lengthAdjust="spacing" textLength="59" x="486.75" y="135.8467">Identifier</text><line style="stroke:#181818;stroke-width:0.5;" x1="360" x2="640" y1="147" y2="147"/><line style="stroke:#181818;stroke-width:0.5;" x1="360" x2="640" y1="155" y2="155"/><text fill="#000000" font-family="sans-serif" font-size="14" lengthAdjust="spacing" textLength="120" x="365" y="171.9951">eq(other) -&gt; bool</text><text fill="#000000" font-family="sans-serif" font-size="14" lengthAdjust="spacing" textLength="129" x="365" y="188.292">neq(other) -&gt; bool</text><text fill="#000000" font-family="sans-serif" font-size="14" lengthAdjust="spacing" textLength="270" x="365" y="204.5889">startswith(prefix: str, start, end) -&gt; bool</text></g><!--class IdentifiedNode--><g id="elem_IdentifiedNode"><rect codeLine="15" fill="#F1F1F1" height="64.2969" id="IdentifiedNode" rx="2.5" ry="2.5" style="stroke:#181818;stroke-width:0.5;" width="132" x="217" y="313"/><ellipse cx="232" cy="329" fill="#C2C2C2" rx="11" ry="11" style="stroke:#181818;stroke-width:1.0;"/><path d="M234.9688,334.6406 Q234.3906,334.9375 233.75,335.0781 Q233.1094,335.2344 232.4063,335.2344 Q229.9063,335.2344 228.5781,333.5938 Q227.2656,331.9375 227.2656,328.8125 Q227.2656,325.6875 228.5781,324.0313 Q229.9063,322.375 232.4063,322.375 Q233.1094,322.375 233.75,322.5313 Q234.4063,322.6875 234.9688,322.9844 L234.9688,325.7031 Q234.3438,325.125 233.75,324.8594 Q233.1563,324.5781 232.5313,324.5781 Q231.1875,324.5781 230.5,325.6563 Q229.8125,326.7188 229.8125,328.8125 Q229.8125,330.9063 230.5,331.9844 Q231.1875,333.0469 232.5313,333.0469 Q233.1563,333.0469 233.75,332.7813 Q234.3438,332.5 234.9688,331.9219 L234.9688,334.6406 Z " fill="#000000"/><text fill="#000000" font-family="sans-serif" font-size="14" lengthAdjust="spacing" textLength="100" x="246" y="333.8467">IdentifiedNode</text><line style="stroke:#181818;stroke-width:0.5;" x1="218" x2="348" y1="345" y2="345"/><line style="stroke:#181818;stroke-width:0.5;" x1="218" x2="348" y1="353" y2="353"/><text fill="#000000" font-family="sans-serif" font-size="14" lengthAdjust="spacing" textLength="115" x="223" y="369.9951">toPython() -&gt; str</text></g><!--class URIRef--><g id="elem_URIRef"><rect codeLine="20" fill="#F1F1F1" height="96.8906" id="URIRef" rx="2.5" ry="2.5" style="stroke:#181818;stroke-width:0.5;" width="232" x="7" y="478"/><ellipse cx="95.75" cy="494" fill="#C2C2C2" rx="11" ry="11" style="stroke:#181818;stroke-width:1.0;"/><path d="M98.7188,499.6406 Q98.1406,499.9375 97.5,500.0781 Q96.8594,500.2344 96.1563,500.2344 Q93.6563,500.2344 92.3281,498.5938 Q91.0156,496.9375 91.0156,493.8125 Q91.0156,490.6875 92.3281,489.0313 Q93.6563,487.375 96.1563,487.375 Q96.8594,487.375 97.5,487.5313 Q98.1563,487.6875 98.7188,487.9844 L98.7188,490.7031 Q98.0938,490.125 97.5,489.8594 Q96.9063,489.5781 96.2813,489.5781 Q94.9375,489.5781 94.25,490.6563 Q93.5625,491.7188 93.5625,493.8125 Q93.5625,495.9063 94.25,496.9844 Q94.9375,498.0469 96.2813,498.0469 Q96.9063,498.0469 97.5,497.7813 Q98.0938,497.5 98.7188,496.9219 L98.7188,499.6406 Z " fill="#000000"/><text fill="#000000" font-family="sans-serif" font-size="14" lengthAdjust="spacing" textLength="46" x="116.25" y="498.8467">URIRef</text><line style="stroke:#181818;stroke-width:0.5;" x1="8" x2="238" y1="510" y2="510"/><line style="stroke:#181818;stroke-width:0.5;" x1="8" x2="238" y1="518" y2="518"/><text fill="#000000" font-family="sans-serif" font-size="14" lengthAdjust="spacing" textLength="220" x="13" y="534.9951">n3(namespace_manager) -&gt; str</text><text fill="#000000" font-family="sans-serif" font-size="14" lengthAdjust="spacing" textLength="125" x="13" y="551.292">defrag() -&gt; URIRef</text><text fill="#000000" font-family="sans-serif" font-size="14" lengthAdjust="spacing" textLength="177" x="13" y="567.5889">de_skolemize() -&gt; BNode</text></g><!--class Genid--><g id="elem_Genid"><rect codeLine="28" fill="#F1F1F1" height="48" id="Genid" rx="2.5" ry="2.5" style="stroke:#181818;stroke-width:0.5;" width="73" x="86.5" y="635"/><ellipse cx="101.5" cy="651" fill="#C2C2C2" rx="11" ry="11" style="stroke:#181818;stroke-width:1.0;"/><path d="M104.4688,656.6406 Q103.8906,656.9375 103.25,657.0781 Q102.6094,657.2344 101.9063,657.2344 Q99.4063,657.2344 98.0781,655.5938 Q96.7656,653.9375 96.7656,650.8125 Q96.7656,647.6875 98.0781,646.0313 Q99.4063,644.375 101.9063,644.375 Q102.6094,644.375 103.25,644.5313 Q103.9063,644.6875 104.4688,644.9844 L104.4688,647.7031 Q103.8438,647.125 103.25,646.8594 Q102.6563,646.5781 102.0313,646.5781 Q100.6875,646.5781 100,647.6563 Q99.3125,648.7188 99.3125,650.8125 Q99.3125,652.9063 100,653.9844 Q100.6875,655.0469 102.0313,655.0469 Q102.6563,655.0469 103.25,654.7813 Q103.8438,654.5 104.4688,653.9219 L104.4688,656.6406 Z " fill="#000000"/><text fill="#000000" font-family="sans-serif" font-size="14" lengthAdjust="spacing" textLength="41" x="115.5" y="655.8467">Genid</text><line style="stroke:#181818;stroke-width:0.5;" x1="87.5" x2="158.5" y1="667" y2="667"/><line style="stroke:#181818;stroke-width:0.5;" x1="87.5" x2="158.5" y1="675" y2="675"/></g><!--class RDFLibGenid--><g id="elem_RDFLibGenid"><rect codeLine="31" fill="#F1F1F1" height="48" id="RDFLibGenid" rx="2.5" ry="2.5" style="stroke:#181818;stroke-width:0.5;" width="121" x="62.5" y="743"/><ellipse cx="77.5" cy="759" fill="#C2C2C2" rx="11" ry="11" style="stroke:#181818;stroke-width:1.0;"/><path d="M80.4688,764.6406 Q79.8906,764.9375 79.25,765.0781 Q78.6094,765.2344 77.9063,765.2344 Q75.4063,765.2344 74.0781,763.5938 Q72.7656,761.9375 72.7656,758.8125 Q72.7656,755.6875 74.0781,754.0313 Q75.4063,752.375 77.9063,752.375 Q78.6094,752.375 79.25,752.5313 Q79.9063,752.6875 80.4688,752.9844 L80.4688,755.7031 Q79.8438,755.125 79.25,754.8594 Q78.6563,754.5781 78.0313,754.5781 Q76.6875,754.5781 76,755.6563 Q75.3125,756.7188 75.3125,758.8125 Q75.3125,760.9063 76,761.9844 Q76.6875,763.0469 78.0313,763.0469 Q78.6563,763.0469 79.25,762.7813 Q79.8438,762.5 80.4688,761.9219 L80.4688,764.6406 Z " fill="#000000"/><text fill="#000000" font-family="sans-serif" font-size="14" lengthAdjust="spacing" textLength="89" x="91.5" y="763.8467">RDFLibGenid</text><line style="stroke:#181818;stroke-width:0.5;" x1="63.5" x2="182.5" y1="775" y2="775"/><line style="stroke:#181818;stroke-width:0.5;" x1="63.5" x2="182.5" y1="783" y2="783"/></g><!--class BNode--><g id="elem_BNode"><rect codeLine="34" fill="#F1F1F1" height="80.5938" id="BNode" rx="2.5" ry="2.5" style="stroke:#181818;stroke-width:0.5;" width="339" x="274.5" y="486"/><ellipse cx="416.25" cy="502" fill="#C2C2C2" rx="11" ry="11" style="stroke:#181818;stroke-width:1.0;"/><path d="M419.2188,507.6406 Q418.6406,507.9375 418,508.0781 Q417.3594,508.2344 416.6563,508.2344 Q414.1563,508.2344 412.8281,506.5938 Q411.5156,504.9375 411.5156,501.8125 Q411.5156,498.6875 412.8281,497.0313 Q414.1563,495.375 416.6563,495.375 Q417.3594,495.375 418,495.5313 Q418.6563,495.6875 419.2188,495.9844 L419.2188,498.7031 Q418.5938,498.125 418,497.8594 Q417.4063,497.5781 416.7813,497.5781 Q415.4375,497.5781 414.75,498.6563 Q414.0625,499.7188 414.0625,501.8125 Q414.0625,503.9063 414.75,504.9844 Q415.4375,506.0469 416.7813,506.0469 Q417.4063,506.0469 418,505.7813 Q418.5938,505.5 419.2188,504.9219 L419.2188,507.6406 Z " fill="#000000"/><text fill="#000000" font-family="sans-serif" font-size="14" lengthAdjust="spacing" textLength="47" x="436.75" y="506.8467">BNode</text><line style="stroke:#181818;stroke-width:0.5;" x1="275.5" x2="612.5" y1="518" y2="518"/><line style="stroke:#181818;stroke-width:0.5;" x1="275.5" x2="612.5" y1="526" y2="526"/><text fill="#000000" font-family="sans-serif" font-size="14" lengthAdjust="spacing" textLength="220" x="280.5" y="542.9951">n3(namespace_manager) -&gt; str</text><text fill="#000000" font-family="sans-serif" font-size="14" lengthAdjust="spacing" textLength="327" x="280.5" y="559.292">skolemize(authority, basepath) -&gt; RDFLibGenid</text></g><!--class Literal--><g id="elem_Literal"><rect codeLine="40" fill="#F1F1F1" height="145.7813" id="Literal" rx="2.5" ry="2.5" style="stroke:#181818;stroke-width:0.5;" width="232" x="384" y="272"/><ellipse cx="475.75" cy="288" fill="#C2C2C2" rx="11" ry="11" style="stroke:#181818;stroke-width:1.0;"/><path d="M478.7188,293.6406 Q478.1406,293.9375 477.5,294.0781 Q476.8594,294.2344 476.1563,294.2344 Q473.6563,294.2344 472.3281,292.5938 Q471.0156,290.9375 471.0156,287.8125 Q471.0156,284.6875 472.3281,283.0313 Q473.6563,281.375 476.1563,281.375 Q476.8594,281.375 477.5,281.5313 Q478.1563,281.6875 478.7188,281.9844 L478.7188,284.7031 Q478.0938,284.125 477.5,283.8594 Q476.9063,283.5781 476.2813,283.5781 Q474.9375,283.5781 474.25,284.6563 Q473.5625,285.7188 473.5625,287.8125 Q473.5625,289.9063 474.25,290.9844 Q474.9375,292.0469 476.2813,292.0469 Q476.9063,292.0469 477.5,291.7813 Q478.0938,291.5 478.7188,290.9219 L478.7188,293.6406 Z " fill="#000000"/><text fill="#000000" font-family="sans-serif" font-size="14" lengthAdjust="spacing" textLength="40" x="496.25" y="292.8467">Literal</text><line style="stroke:#181818;stroke-width:0.5;" x1="385" x2="615" y1="304" y2="304"/><text fill="#000000" font-family="sans-serif" font-size="14" lengthAdjust="spacing" textLength="154" x="390" y="320.9951">datatype: Optional[str]</text><text fill="#000000" font-family="sans-serif" font-size="14" lengthAdjust="spacing" textLength="123" x="390" y="337.292">lang: Optional[str]</text><text fill="#000000" font-family="sans-serif" font-size="14" lengthAdjust="spacing" textLength="70" x="390" y="353.5889">value: Any</text><line style="stroke:#181818;stroke-width:0.5;" x1="385" x2="615" y1="360.8906" y2="360.8906"/><text fill="#000000" font-family="sans-serif" font-size="14" lengthAdjust="spacing" textLength="142" x="390" y="377.8857">normalize() -&gt; Literal</text><text fill="#000000" font-family="sans-serif" font-size="14" lengthAdjust="spacing" textLength="220" x="390" y="394.1826">n3(namespace_manager) -&gt; str</text><text fill="#000000" font-family="sans-serif" font-size="14" lengthAdjust="spacing" textLength="115" x="390" y="410.4795">toPython() -&gt; str</text></g><!--class Variable--><g id="elem_Variable"><rect codeLine="51" fill="#F1F1F1" height="80.5938" id="Variable" rx="2.5" ry="2.5" style="stroke:#181818;stroke-width:0.5;" width="232" x="651" y="304.5"/><ellipse cx="735.75" cy="320.5" fill="#C2C2C2" rx="11" ry="11" style="stroke:#181818;stroke-width:1.0;"/><path d="M738.7188,326.1406 Q738.1406,326.4375 737.5,326.5781 Q736.8594,326.7344 736.1563,326.7344 Q733.6563,326.7344 732.3281,325.0938 Q731.0156,323.4375 731.0156,320.3125 Q731.0156,317.1875 732.3281,315.5313 Q733.6563,313.875 736.1563,313.875 Q736.8594,313.875 737.5,314.0313 Q738.1563,314.1875 738.7188,314.4844 L738.7188,317.2031 Q738.0938,316.625 737.5,316.3594 Q736.9063,316.0781 736.2813,316.0781 Q734.9375,316.0781 734.25,317.1563 Q733.5625,318.2188 733.5625,320.3125 Q733.5625,322.4063 734.25,323.4844 Q734.9375,324.5469 736.2813,324.5469 Q736.9063,324.5469 737.5,324.2813 Q738.0938,324 738.7188,323.4219 L738.7188,326.1406 Z " fill="#000000"/><text fill="#000000" font-family="sans-serif" font-size="14" lengthAdjust="spacing" textLength="54" x="756.25" y="325.3467">Variable</text><line style="stroke:#181818;stroke-width:0.5;" x1="652" x2="882" y1="336.5" y2="336.5"/><line style="stroke:#181818;stroke-width:0.5;" x1="652" x2="882" y1="344.5" y2="344.5"/><text fill="#000000" font-family="sans-serif" font-size="14" lengthAdjust="spacing" textLength="220" x="657" y="361.4951">n3(namespace_manager) -&gt; str</text><text fill="#000000" font-family="sans-serif" font-size="14" lengthAdjust="spacing" textLength="115" x="657" y="377.792">toPython() -&gt; str</text></g><!--reverse link Node to Identifier--><g id="link_Node_Identifier"><path codeLine="13" d="M500,75.37 C500,88.03 500,101.93 500,114.84 " fill="none" id="Node-backto-Identifier" style="stroke:#181818;stroke-width:1.0;"/><polygon fill="none" points="493,75.03,500,55.03,507,75.03,493,75.03" style="stroke:#181818;stroke-width:1.0;"/></g><!--reverse link Identifier to IdentifiedNode--><g id="link_Identifier_IdentifiedNode"><path codeLine="18" d="M423.94,224.69 C404.9,239.98 384.61,256.48 366,272 C350.18,285.2 332.94,300.08 318.29,312.86 " fill="none" id="Identifier-backto-IdentifiedNode" style="stroke:#181818;stroke-width:1.0;"/><polygon fill="none" points="419.58,219.21,439.57,212.17,428.33,230.14,419.58,219.21" style="stroke:#181818;stroke-width:1.0;"/></g><!--reverse link IdentifiedNode to URIRef--><g id="link_IdentifiedNode_URIRef"><path codeLine="25" d="M241.78,392.25 C218.4,418.48 189.19,451.24 165.59,477.72 " fill="none" id="IdentifiedNode-backto-URIRef" style="stroke:#181818;stroke-width:1.0;"/><polygon fill="none" points="236.6,387.54,255.13,377.27,247.05,396.85,236.6,387.54" style="stroke:#181818;stroke-width:1.0;"/></g><!--reverse link URIRef to Genid--><g id="link_URIRef_Genid"><path codeLine="29" d="M123,595.73 C123,609.76 123,623.6 123,634.66 " fill="none" id="URIRef-backto-Genid" style="stroke:#181818;stroke-width:1.0;"/><polygon fill="none" points="116,595.35,123,575.35,130,595.35,116,595.35" style="stroke:#181818;stroke-width:1.0;"/></g><!--reverse link Genid to RDFLibGenid--><g id="link_Genid_RDFLibGenid"><path codeLine="32" d="M123,703.02 C123,716.58 123,731.04 123,742.68 " fill="none" id="Genid-backto-RDFLibGenid" style="stroke:#181818;stroke-width:1.0;"/><polygon fill="none" points="116,703,123,683,130,703,116,703" style="stroke:#181818;stroke-width:1.0;"/></g><!--reverse link IdentifiedNode to BNode--><g id="link_IdentifiedNode_BNode"><path codeLine="38" d="M324.64,392.42 C350.6,421.37 383.65,458.22 408.39,485.8 " fill="none" id="IdentifiedNode-backto-BNode" style="stroke:#181818;stroke-width:1.0;"/><polygon fill="none" points="319.19,396.83,311.04,377.27,329.61,387.48,319.19,396.83" style="stroke:#181818;stroke-width:1.0;"/></g><!--reverse link Identifier to Literal--><g id="link_Identifier_Literal"><path codeLine="49" d="M500,232.34 C500,245.23 500,258.76 500,271.78 " fill="none" id="Identifier-backto-Literal" style="stroke:#181818;stroke-width:1.0;"/><polygon fill="none" points="493,232.13,500,212.13,507,232.13,493,232.13" style="stroke:#181818;stroke-width:1.0;"/></g><!--reverse link Identifier to Variable--><g id="link_Identifier_Variable"><path codeLine="55" d="M587.64,223.42 C627.11,249.96 672.68,280.59 708.01,304.34 " fill="none" id="Identifier-backto-Variable" style="stroke:#181818;stroke-width:1.0;"/><polygon fill="none" points="583.54,229.1,570.85,212.13,591.35,217.48,583.54,229.1" style="stroke:#181818;stroke-width:1.0;"/></g><!--SRC=[ZL91JiCm4Bpx5JuMgJrnww4I1OegLO2Au89GjQqtYLN73ck74g1_nusTD88WwaDapOvdPZThjr8NG91pcu4mEwbJde2oo6nRoOqscunCZjnHsQqKiDb2YW-kKiW9Dmvqghg4jIUaP4ejBeqon6U7SytOHe6r_DO8REvpWTh9H2BnJyRzmTU1SHdI6HzD-DeOLQEw7xOEoDcTTDcW84pa-zX3D0puaACMH_wUTRn6PJ7wclGd4GSqfd7cldAPqODQnsjtPG8nIXt56y77vNo9IHJIvmCDELe_EbpbeFtugDKy40Gc16dm2IyZlB9Rep2N7nYAqphqdaNvd_OYz1GptA2MWjNVXXd58s5vDLl8TQ1rxWqv529tsXdCl_qSKqFf9qZILKE_5nOBS5dDx5hlsRHtcABxXnRI8O6A2GGuS5M1OtvNE6aqg6Vl_LBNb5_8FlmDLEaVNEYAXIuCvQ3QqKQ3qnhiMuqcuPyxyGGaOQrEdcAVIQlns-KR]--></g></svg>